<?xml version="1.0" encoding="utf-8"?>
<!-- Generator: Adobe Illustrator 24.1.0, SVG Export Plug-In . SVG Version: 6.00 Build 0)  -->
<svg version="1.1" id="Layer_1" xmlns="http://www.w3.org/2000/svg" xmlns:xlink="http://www.w3.org/1999/xlink" x="0px" y="0px"
	 viewBox="0 0 124 124" style="enable-background:new 0 0 124 124;" xml:space="preserve">
<g>
	<path style="fill:#9499B3;" d="M2,64.5c0-1.7,0-3.3,0-5c0.1-1.2,0.2-2.4,0.3-3.6C3,49.4,4.7,43.1,7.4,37.1
		C16.3,17.7,34.7,4.5,56,2.3C63.1,1.6,70.2,2.2,77.1,4c24.7,6.4,42.6,27.8,44.7,53.3c0.7,8.2-0.3,16.3-3,24.1
		c-5.3,15.3-15.2,26.6-29.5,34.1c-6.6,3.5-13.7,5.5-21.2,6.2c-1.2,0.1-2.4,0.2-3.6,0.3c-1.7,0-3.3,0-5,0c-0.2,0-0.5-0.1-0.7-0.1
		c-4.1-0.2-8.1-0.8-12-1.9c-16.6-4.6-29.1-14.4-37.5-29.3c-3.9-7-6.2-14.6-7-22.6C2.2,66.9,2.1,65.7,2,64.5z M61.9,98.2
		c3.5,0,7,0,10.6,0c3.2,0,6.4-0.1,9.6-0.8c8.2-1.8,13.3-6.8,15.2-14.9c0.8-3.3,0.8-6.7,0.8-10.1c0-6.9,0-13.9,0-20.8
		c0-3.3-0.1-6.5-0.8-9.7c-1.7-7.7-6.3-12.8-13.9-15c-3.1-0.9-6.3-1-9.5-1.1c-8-0.1-16.1,0-24.1,0c-2.7,0-5.5,0.1-8.2,0.8
		c-7.5,1.7-12.5,6.2-14.8,13.6c-0.9,3.2-1.1,6.4-1.1,9.7c-0.1,7.1-0.1,14.2-0.1,21.3c0,3.5,0,7.1,0.7,10.6c1.5,8.1,7,13.8,14.8,15.6
		c3.4,0.8,6.8,0.8,10.2,0.9C55,98.2,58.4,98.2,61.9,98.2z"/>
	<path style="fill:#FFFFFF;" d="M61.9,98.2c-3.5,0-7,0-10.5,0c-3.4,0-6.9-0.1-10.2-0.9c-7.9-1.8-13.3-7.5-14.8-15.6
		c-0.6-3.5-0.7-7-0.7-10.6c0-7.1,0-14.2,0.1-21.3c0-3.3,0.2-6.5,1.1-9.7c2.2-7.5,7.2-11.9,14.8-13.6c2.7-0.6,5.5-0.7,8.2-0.8
		c8,0,16.1-0.1,24.1,0c3.2,0,6.4,0.2,9.5,1.1c7.7,2.2,12.2,7.2,13.9,15c0.7,3.2,0.7,6.5,0.8,9.7c0,6.9,0,13.9,0,20.8
		c0,3.4-0.1,6.8-0.8,10.1c-1.9,8.2-7,13.1-15.2,14.9c-3.2,0.7-6.4,0.7-9.6,0.8C69,98.2,65.5,98.2,61.9,98.2z M32.1,61.9
		c0,0,0.1,0,0.1,0c0,2.7,0,5.3,0,8c0.1,3.6,0,7.2,0.7,10.8c1,5.2,4,8.7,9.2,10.1c2.3,0.6,4.6,0.8,6.9,0.8c8.7,0,17.3,0,26,0
		c1.9,0,3.8-0.2,5.7-0.5c5.3-1,8.8-4.1,10.2-9.3c0.6-2.3,0.8-4.7,0.8-7.1c0-8.4,0-16.9,0-25.3c0-2.2-0.1-4.4-0.6-6.5
		c-0.9-4-3.1-7.1-7-8.9c-2.2-1-4.5-1.4-6.9-1.5c-4-0.1-8.1-0.2-12.1-0.2c-5.3,0-10.7,0-16,0.1c-2.1,0-4.2,0.2-6.3,0.7
		c-4.5,0.9-7.7,3.6-9.3,8.1c-0.7,1.9-1,3.8-1,5.8C32.2,51.8,32.2,56.9,32.1,61.9z"/>
	<path style="fill:#9499B3;" d="M32.1,61.9c0.1-5.1,0.2-10.1,0.3-15.2c0.1-2,0.4-3.9,1-5.8c1.6-4.4,4.7-7.1,9.3-8.1
		c2.1-0.4,4.2-0.6,6.3-0.7c5.3-0.1,10.7-0.2,16-0.1c4,0,8.1,0.1,12.1,0.2c2.4,0.1,4.7,0.5,6.9,1.5c3.8,1.8,6,4.8,7,8.9
		c0.5,2.2,0.6,4.3,0.6,6.5c0,8.4,0,16.9,0,25.3c0,2.4-0.1,4.8-0.8,7.1c-1.4,5.3-4.9,8.4-10.2,9.3c-1.9,0.3-3.8,0.5-5.7,0.5
		c-8.7,0.1-17.3,0-26,0c-2.3,0-4.6-0.2-6.9-0.8c-5.2-1.4-8.2-4.9-9.2-10.1c-0.7-3.5-0.6-7.2-0.7-10.8c0-2.7,0-5.3,0-8
		C32.1,61.9,32.1,61.9,32.1,61.9z M43.3,61.9c0,10.3,8.3,18.6,18.5,18.6c10.3,0,18.7-8.3,18.7-18.6c0-10.3-8.3-18.6-18.6-18.6
		C51.7,43.3,43.3,51.6,43.3,61.9z M81.3,46.9c2.4-0.1,4.3-2,4.3-4.4c-0.1-2.4-2.1-4.3-4.5-4.2c-2.4,0.1-4.3,2.1-4.2,4.4
		C77,45.1,79,47,81.3,46.9z"/>
	<path style="fill:#FFFFFF;" d="M43.3,61.9c0-10.3,8.3-18.6,18.6-18.6c10.4,0,18.7,8.3,18.6,18.6c0,10.3-8.4,18.6-18.7,18.6
		C51.6,80.5,43.3,72.2,43.3,61.9z M62,49.8c-6.7,0-12.1,5.4-12.2,12.1c-0.1,6.7,5.4,12.2,12.1,12.2c6.7,0,12.1-5.4,12.1-12.1
		C74.1,55.3,68.7,49.8,62,49.8z"/>
	<path style="fill:#FFFFFF;" d="M81.3,46.9C79,47,77,45.1,76.9,42.7c-0.1-2.4,1.9-4.4,4.2-4.4c2.4-0.1,4.4,1.8,4.5,4.2
		C85.7,44.9,83.8,46.9,81.3,46.9z"/>
	<path style="fill:#9499B3;" d="M62,49.8c6.7,0,12.1,5.5,12.1,12.1c0,6.7-5.4,12.1-12.1,12.1c-6.7,0-12.2-5.5-12.1-12.2
		C49.9,55.2,55.3,49.8,62,49.8z"/>
</g>
</svg>
