<?xml version="1.0" encoding="utf-8"?>
<!-- Generator: Adobe Illustrator 24.1.0, SVG Export Plug-In . SVG Version: 6.00 Build 0)  -->
<svg version="1.1" id="Layer_1" xmlns="http://www.w3.org/2000/svg" xmlns:xlink="http://www.w3.org/1999/xlink" x="0px" y="0px"
	 viewBox="0 0 24 24" style="enable-background:new 0 0 24 24;" xml:space="preserve">
<style type="text/css">
	.st0{fill:#292D5B;}
	.st1{fill:#FFFFFF;}
</style>
<circle class="st0" cx="12" cy="12" r="12"/>
<path class="st1" d="M19.3,17.7h-3v-5c0-0.8-0.9-1.4-1.7-1.4s-1.3,0.6-1.3,1.4v5h-2.9V8.8h2.9v1.5C13.9,9.5,15.1,9,15.9,9
	c1.8,0,3.3,1.5,3.3,3.3V17.7 M8.9,17.7H6V8.8h3L8.9,17.7 M7.5,4.4c0.8,0,1.5,0.7,1.5,1.5c0,0.8-0.7,1.5-1.5,1.5C6.6,7.4,6,6.7,6,5.9
	C6,5.1,6.6,4.4,7.5,4.4z"/>
</svg>
