<?xml version="1.0" encoding="utf-8"?>
<!-- Generator: Adobe Illustrator 25.0.0, SVG Export Plug-In . SVG Version: 6.00 Build 0)  -->
<svg version="1.1" id="Layer_1" xmlns="http://www.w3.org/2000/svg" xmlns:xlink="http://www.w3.org/1999/xlink" x="0px" y="0px"
	 viewBox="0 0 124 124" style="enable-background:new 0 0 124 124;" xml:space="preserve">
<g>
	<ellipse style="fill:#9499B3;" cx="62" cy="62" rx="61.7" ry="62"/>
	<path style="fill:#FFFFFF;" d="M87.6,89.2H76.2V68.8c0-3.2-3.4-5.9-6.4-5.9c-3,0-5,2.7-5,5.9v20.4H53.5V52.9h11.4v6
		c1.9-3.2,6.7-5.3,10-5.3c7.1,0,12.8,6.2,12.8,13.6V89.2z M47.8,89.2H36.4V52.9h11.4L47.8,89.2z M42.1,34.8c3.1,0,5.7,2.7,5.7,6
		c0,3.3-2.6,6-5.7,6c-3.1,0-5.7-2.7-5.7-6C36.4,37.5,38.9,34.8,42.1,34.8z"/>
</g>
</svg>
