<svg width="32" height="32" viewBox="0 0 32 32" fill="none" xmlns="http://www.w3.org/2000/svg">
<circle cx="16" cy="16" r="16" fill="#9499B3"/>
<path d="M16.0002 6C10.4774 6 6 10.4772 6 16.0001C6 21.5231 10.4774 26 16.0002 26C21.5236 26 26.0005 21.5231 26.0005 16.0001C26.0005 10.4776 21.5236 6.00048 16.0001 6.00048L16.0002 6ZM20.5862 20.423C20.4071 20.7167 20.0226 20.8099 19.7288 20.6295C17.3809 19.1954 14.4251 18.8706 10.9441 19.6659C10.6087 19.7423 10.2743 19.5321 10.1979 19.1966C10.1211 18.861 10.3305 18.5266 10.6667 18.4502C14.4761 17.5799 17.7436 17.9546 20.3796 19.5656C20.6734 19.7459 20.7665 20.1292 20.5862 20.423ZM21.8102 17.7001C21.5845 18.0669 21.1045 18.1827 20.7379 17.957C18.0498 16.3048 13.9523 15.8263 10.7729 16.7914C10.3606 16.916 9.92505 16.6836 9.79991 16.272C9.67572 15.8596 9.90822 15.425 10.3198 15.2996C13.9516 14.1976 18.4666 14.7314 21.5535 16.6283C21.9201 16.854 22.0359 17.3339 21.8102 17.7001ZM21.9153 14.8647C18.6923 12.9503 13.3747 12.7743 10.2975 13.7082C9.80337 13.8581 9.28081 13.5792 9.13106 13.085C8.98132 12.5906 9.26003 12.0684 9.75453 11.9182C13.2869 10.8459 19.1592 11.0531 22.8699 13.2559C23.3153 13.5197 23.461 14.0937 23.1971 14.5376C22.9344 14.982 22.3588 15.1286 21.9158 14.8647H21.9153Z" fill="white"/>
</svg>
