<?xml version="1.0" encoding="utf-8"?>
<!-- Generator: Adobe Illustrator 25.0.0, SVG Export Plug-In . SVG Version: 6.00 Build 0)  -->
<svg version="1.1" id="Layer_1" xmlns="http://www.w3.org/2000/svg" xmlns:xlink="http://www.w3.org/1999/xlink" x="0px" y="0px"
	 viewBox="0 0 124 124" style="enable-background:new 0 0 124 124;" xml:space="preserve">
<g>
	<ellipse style="fill:#9499B3;" cx="62" cy="62" rx="61.7" ry="62"/>
	<path style="fill:#FFFFFF;" d="M90.7,44.3c-2.1,1-4.4,1.6-6.8,1.9c2.4-1.4,4.3-3.7,5.2-6.5c-2.3,1.4-4.8,2.3-7.5,2.9
		c-2.2-2.3-5.2-3.7-8.7-3.7c-6.4,0-11.7,5.2-11.7,11.7c0,0.9,0.1,1.8,0.3,2.7c-9.8-0.5-18.5-5.1-24.3-12.2c-1,1.7-1.6,3.7-1.6,5.9
		c0,4.1,2.1,7.7,5.2,9.7c-1.9,0-3.8-0.5-5.4-1.4c0,0,0,0,0,0.1c0,5.7,4.1,10.4,9.4,11.5c-1,0.3-2,0.4-3.1,0.4
		c-0.7,0-1.5-0.1-2.2-0.2c1.5,4.6,5.8,8,11,8.1c-4,3.2-9.1,5-14.6,5c-0.9,0-1.9-0.1-2.8-0.2c5.2,3.3,11.4,5.3,18.1,5.3
		c21.6,0,33.5-17.8,33.5-33.3c0-0.5,0-1,0-1.5C87.1,48.7,89.1,46.7,90.7,44.3z"/>
</g>
</svg>
