<svg width="32" height="32" viewBox="0 0 32 32" fill="none" xmlns="http://www.w3.org/2000/svg">
<circle cx="16" cy="16" r="16" fill="#292D5B"/>
<path fill-rule="evenodd" clip-rule="evenodd" d="M24.9096 10.0724C25.2201 10.3829 25.4439 10.7694 25.5586 11.1934C26.2192 13.8524 26.0666 18.0518 25.5715 20.8134C25.4567 21.2374 25.233 21.6239 24.9224 21.9344C24.6118 22.245 24.2253 22.4688 23.8014 22.5835C22.2493 23.0068 16.0027 23.0068 16.0027 23.0068C16.0027 23.0068 9.75609 23.0068 8.20405 22.5835C7.7801 22.4688 7.39359 22.245 7.08303 21.9344C6.77247 21.6239 6.54868 21.2374 6.43396 20.8134C5.76954 18.166 5.95168 13.9639 6.42113 11.2062C6.53586 10.7822 6.75964 10.3957 7.0702 10.0852C7.38077 9.77461 7.76727 9.55083 8.19122 9.43611C9.74326 9.01283 15.9899 9 15.9899 9C15.9899 9 22.2365 9 23.7885 9.42328C24.2125 9.538 24.599 9.76179 24.9096 10.0724ZM19.182 16.0015L14 19.0029V13L19.182 16.0015Z" fill="white"/>
</svg>
