<svg width="1297" height="456" viewBox="0 0 1297 456" fill="none" xmlns="http://www.w3.org/2000/svg">
    <g clip-path="url(#clip0_1493_6518)">
        <rect x="0.00500488" y="0.667969" width="1296" height="455" rx="16" fill="#FE5829" />
        <circle cx="187.005" cy="-51.332" r="187" fill="#FF6F46" />
        <path
            d="M374.005 322.668C374.005 273.072 354.303 225.508 319.234 190.439C284.165 155.37 236.6 135.668 187.005 135.668C137.41 135.668 89.8454 155.37 54.7761 190.439C19.7067 225.508 0.00501237 273.072 0.00500488 322.668L374.005 322.668Z"
            fill="#FF6F46" />
        <circle cx="187.005" cy="509.668" r="187" fill="#FF6F46" />
        <circle cx="1109" cy="-51.332" r="187" fill="#FF6F46" />
        <path
            d="M1296 322.668C1296 273.072 1276.3 225.508 1241.23 190.439C1206.16 155.37 1158.6 135.668 1109 135.668C1059.41 135.668 1011.85 155.37 976.776 190.439C941.707 225.508 922.005 273.072 922.005 322.668L1296 322.668Z"
            fill="#FF6F46" />
        <circle cx="1109" cy="509.668" r="187" fill="#FF6F46" />
    </g>
    <defs>
        <clipPath id="clip0_1493_6518">
            <rect x="0.00500488" y="0.667969" width="1296" height="455" rx="16" fill="white" />
        </clipPath>
    </defs>
</svg>